<svg xmlns="http://www.w3.org/2000/svg" width="450" height="450" fill="none" viewBox="0 0 450 450">
  <path fill="#013EC0" d="M0 225v225h225c-62.182 0-118.473-25.225-159.198-66C25.143 343.291 0 287.082 0 225Z"/>
  <path fill="#013EC0" fill-rule="evenodd" d="M450 225c0 124.264-100.736 225-225 225-62.182 0-118.473-25.225-159.198-66H225c87.813 0 159-71.187 159-159S312.813 66 225 66 66 137.187 66 225l-.198 159C25.143 343.291 0 287.082 0 225 0 100.736 100.736 0 225 0s225 100.736 225 225Z" clip-rule="evenodd"/>
  <path fill="#013EC0" d="m224.588 113 .999 111.5L304 145.814C283.652 125.536 255.584 113 224.588 113Z"/>
  <path fill="#FC0" d="m224.588 113 .999 111.5L304 145.814C283.652 125.536 255.584 113 224.588 113Z"/>
  <path fill="#013EC0" fill-rule="evenodd" d="M224.5 338c30.58 0 58.31-12.201 78.588-32L143.915 147C124.166 167.27 112 194.964 112 225.5c0 62.132 50.368 112.5 112.5 112.5ZM146 145c20.278-19.799 48.008-32 78.588-32l.998 111.5L146 145Z" clip-rule="evenodd"/>
  <path fill="#FF3B30" fill-rule="evenodd" d="M146 145c20.278-19.799 48.008-32 78.588-32l.998 111.5L146 145Z" clip-rule="evenodd"/>
  <path fill="#013EC0" d="m225.587 224.5 111.501 1c0-31.136-12.649-59.317-33.088-79.686L225.587 224.5Z"/>
  <path fill="#34C759" d="m225.587 224.5 111.501 1c0-31.136-12.649-59.317-33.088-79.686L225.587 224.5Z"/>
  <path fill="#007AFF" d="M305.173 304c19.749-20.27 31.915-47.964 31.915-78.5l-111.501-1 79.586 79.5Z"/>
</svg>
