<svg width="790" height="393" viewBox="0 0 790 393" fill="none" xmlns="http://www.w3.org/2000/svg">
<path fill-rule="evenodd" clip-rule="evenodd" d="M780.998 39.8253C783.362 37.4595 785.725 34.305 786.906 30.3619C787.3 30.3619 787.3 29.9676 787.3 29.9676C792.026 17.3497 790.844 0 781.392 0C728.618 0.394305 598.553 8.67596 549.324 30.363C534.752 36.2777 533.176 79.2573 548.536 72.5541C560.351 67.428 572.954 63.4851 585.951 60.3306C585.36 71.7653 584.769 83.2985 584.178 94.8318C583.588 106.366 582.997 117.899 582.406 129.335C571.62 131.941 510.963 146.855 495.288 152.16C479.711 155.796 456.752 168.578 458.823 176.642C460.765 184.203 462.622 192.202 464.479 200.201L464.479 200.203L464.48 200.207C466.337 208.207 468.194 216.208 470.137 223.772L421.546 236.283C408.421 239.663 423.796 267.063 434.966 264.187L477.692 253.185L489.925 300.807C492.731 311.732 527.439 301.004 524.345 288.958L512.832 244.137L556.722 232.836C569.568 229.529 554.193 202.129 543.023 205.005L505.277 214.724L499.682 192.944C520.2 186.572 570.336 174.456 580.623 171.97L580.625 171.97L580.831 171.92C580.334 188.342 579.707 204.637 579.083 220.884C577.728 256.132 576.382 291.158 576.382 326.785C576.382 342.557 618.917 339.797 618.917 323.236C618.917 286.725 620.268 250.633 621.626 214.385C622.247 197.783 622.87 181.15 623.365 164.428C627.418 163.898 630.655 163.421 633.57 162.991C640.415 161.982 645.482 161.234 655.15 160.681C672.479 159.498 676.435 118.187 661.469 118.976C646.109 119.764 641.482 120.266 624.941 122.237C626.122 99.3671 627.304 76.4973 628.879 53.6273C630.966 53.4184 635.243 52.9756 640.939 52.3861L640.946 52.3853C667.5 49.6368 724.868 43.6987 734.919 43.3741C726.255 57.5693 719.166 72.5531 715.621 88.3255C711.289 106.069 753.43 105.675 756.974 91.0856C760.913 72.5531 769.971 55.2034 780.998 39.8253ZM761.157 260.432C760.897 253.179 761.416 241.265 762.193 233.495C762.453 231.164 759.342 229.092 757.787 228.315C754.677 227.02 750.789 226.761 747.678 227.02C742.235 227.538 735.237 229.61 734.459 235.826L734.459 235.828C734.2 237.899 733.941 239.971 733.941 242.042H733.422C734.2 203.969 738.865 166.154 746.123 129.116C748.456 116.425 711.988 121.087 707.841 129.116C687.489 166.469 668.968 204.819 650.544 242.968L650.533 242.99L650.526 243.006L650.509 243.04L650.49 243.079C645.936 252.508 641.389 261.924 636.821 271.31C633.451 278.303 639.672 282.706 658.852 279.08C670.776 277.008 682.699 275.454 694.622 274.159C694.734 277.415 694.603 286.001 694.46 295.316L694.46 295.324V295.33V295.333C694.274 307.5 694.069 320.906 694.363 325.306C695.399 335.666 734.459 331.522 733.422 320.903C733.129 316.656 733.333 303.264 733.519 291.068V291.063V291.06L733.519 291.053C733.662 281.682 733.794 273.019 733.681 269.756C737.183 269.496 740.75 269.237 744.316 268.978C747.878 268.719 751.439 268.46 754.936 268.202C759.083 267.943 760.897 264.576 761.157 260.432ZM696.695 206.041C695.399 219.509 694.622 232.718 694.363 246.186C691.036 246.475 684.442 247.818 678.226 249.084C673.3 250.087 668.613 251.041 665.977 251.385C672.717 237.398 685.177 212.939 696.695 206.041ZM449.648 118.398C464.197 118.067 468.827 82.3122 456.261 82.3122C411.952 82.6433 364.105 93.987 322.772 111.864C310.537 117.161 309.092 154.885 321.988 149.257C331.908 144.953 342.489 141.643 353.401 138.994C349.433 202.227 347.241 263.491 346.911 326.393C346.911 339.636 382.623 337.318 382.623 323.413C382.623 259.187 384.849 193.525 388.817 129.629C407.104 122.44 429.808 118.398 449.648 118.398ZM319.665 220.635C331.153 210.819 350.438 217.764 334.487 230.826C337.043 228.874 335.61 230.278 333.776 232.075L333.775 232.075C332.779 233.052 331.664 234.144 331.006 234.877C327.121 239.42 323.729 244.367 320.711 249.457C308.614 270.452 304.14 294.579 303.993 318.637C305.254 327.732 286.614 338.258 278.787 333.973C277.545 333.282 276.446 332.216 276.125 330.802C247.724 272.786 228.481 189.587 218.76 126.012C217.062 115.243 256.367 97.5879 258.358 110.407C265.734 157.582 277.603 214.798 294.296 261.231C294.429 260.837 294.56 260.449 294.69 260.066L294.894 259.464C301.271 240.621 303.546 233.899 319.665 220.635ZM198.782 331.122C205.083 344.923 246.83 337.826 239.347 321.265C227.926 296.029 217.292 270.398 207.84 244.374C208.509 244.207 209.177 243.968 209.876 243.719C210.823 243.381 211.826 243.024 212.96 242.797C227.532 237.276 229.895 194.297 213.748 200.211C212.63 200.631 211.524 201.051 210.425 201.468C205.325 203.404 200.351 205.293 194.843 206.915C179.484 157.626 166.282 114.045 160.374 61.9958C159.586 54.5039 149.74 51.3494 139.894 51.7438C128.867 50.9551 116.658 54.8982 115.083 62.3902C104.449 125.085 87.7193 177.341 64.089 234.911C61.726 234.911 59.363 235.305 57.3938 235.699C45.9725 237.276 40.4587 262.907 47.154 273.553C43.6792 280.842 36.556 297.962 28.7916 316.623C18.0756 342.378 6.13831 371.068 0.885775 380.9C-6.99099 395.489 40.065 397.461 47.1541 383.66C53.1333 372.645 66.299 340.947 77.6583 313.597C85.0044 295.91 91.5949 280.043 94.9977 272.764C120.991 268.427 142.463 263.301 168.062 256.598C177.514 281.833 187.754 306.675 198.782 331.122ZM154.672 217.955C139.706 221.504 124.74 224.658 109.774 227.419C119.62 202.577 128.285 176.947 135.768 151.317C141.281 173.793 147.583 195.874 154.672 217.955Z" fill="#222222"/>
</svg>
